<?xml version="1.0" encoding="UTF-8"?>
<svg width="30px" height="45px" viewBox="0 0 30 45" version="1.1" xmlns="http://www.w3.org/2000/svg" xmlns:xlink="http://www.w3.org/1999/xlink">
    <!-- Generator: Sketch 41.2 (35397) - http://www.bohemiancoding.com/sketch -->
    <title>Toybot</title>
    <desc>Created with Sketch.</desc>
    <defs></defs>
    <g id="Site" stroke="none" stroke-width="1" fill="none" fill-rule="evenodd">
        <g id="Toybot" fill="#FFFFFF">
            <path d="M13.0767463,28.8716045 C13.0767463,27.8884818 13.8187364,26.8051814 14.7455011,26.4475578 L28.1726975,21.2662183 C29.0943253,20.910577 29.8414522,21.412504 29.8414522,22.4023738 L29.8414522,37.2330092 C29.8414522,38.2161319 29.0994621,39.2994323 28.1726975,39.657056 L14.7455011,44.8383954 C13.8238733,45.1940368 13.0767463,44.6921098 13.0767463,43.70224 L13.0767463,28.8716045 Z M17.1533365,37.129439 C18.7450836,37.129439 19.7830613,35.6465279 19.7826287,34.229965 C19.7824006,33.4831893 19.3643842,32.4453496 18.4414522,32.4453496 C16.5381778,32.4453496 15.7590993,34.3713487 15.7590993,35.1222727 C15.7590993,36.2334092 16.1645738,37.1294391 17.1533365,37.129439 Z M25.1979143,33.9608961 C26.7896615,33.960896 27.8276392,32.4779849 27.8272065,31.061422 C27.8269785,30.3146463 27.4089621,29.2768066 26.4860301,29.2768066 C24.5827557,29.2768066 23.8036771,31.2028057 23.8036771,31.9537297 C23.8036771,33.0648663 24.2091516,33.9608961 25.1979143,33.9608961 Z" id="Combined-Shape-Copy-5"></path>
            <path d="M18.4827486,13.2360014 L26.6803504,17.4587627 C27.9933782,18.1351315 27.9468584,19.1230505 26.5773555,19.6658102 L14.2646636,24.5455606 C13.3619302,24.9033308 11.9045429,24.8355549 11.0310912,24.3856211 L1.43376931,19.4418339 C0.120741572,18.765465 0.167261313,17.777546 1.5367642,17.2347864 L11.3720447,13.3368805 L11.5368367,13.3368805 L11.3193811,15.4977 C10.9149771,19.42146 15.3436551,20.6389813 16.8938536,16.9831206 L18.4827486,13.2360014 Z" id="Combined-Shape"></path>
            <path d="M15.5986714,2.06291049 C15.7530099,0.614600478 14.6622555,0.330082593 14.1248441,1.6955277 L10.557916,10.7583131 C10.4069758,11.1418192 10.6999654,11.5539083 11.1121104,11.5377861 L13.8654959,11.4206035 L13.4220492,15.7231779 C13.2707583,17.1910894 14.3606304,17.5077751 14.9468392,16.1253087 L18.4129375,7.9511478 C18.5735041,7.57248066 18.2928285,7.1535226 17.8812314,7.15748232 L15.072969,7.18449855 L15.5986714,2.06291049 Z" id="Triangle-1-Copy-13"></path>
        </g>
    </g>
</svg>