<?xml version="1.0" encoding="UTF-8"?>
<svg width="144px" height="24px" viewBox="0 0 144 24" version="1.1" xmlns="http://www.w3.org/2000/svg" xmlns:xlink="http://www.w3.org/1999/xlink">
    <!-- Generator: Sketch 41.2 (35397) - http://www.bohemiancoding.com/sketch -->
    <title>toybox-white</title>
    <desc>Created with Sketch.</desc>
    <defs></defs>
    <g id="Logo" stroke="none" stroke-width="1" fill="none" fill-rule="evenodd">
        <path d="M6.46473259,22.9608862 C6.46474176,23.2354138 6.6815032,23.4579624 6.95939096,23.4579624 L11.3300351,23.4579624 C11.6032182,23.4579624 11.8246817,23.2318016 11.8246875,22.9608862 L11.8250609,5.57072248 L17.803548,5.57072248 C18.071891,5.57072248 18.289426,5.35469499 18.289426,5.08865997 L18.289426,1.02523617 C18.289426,0.759000397 18.071286,0.543173657 17.8002281,0.543173657 L0.489197965,0.543173657 C0.219021389,0.543173657 0,0.759201145 0,1.02523617 L0,5.08865997 C0,5.35489574 0.215073894,5.57072248 0.485861993,5.57072248 L6.46415166,5.57072248 L6.46473259,22.9608862 Z M22.2830216,16.9369419 C22.8789826,18.3999059 23.7082273,19.6599097 24.7691941,20.7106691 C25.8311584,21.7624164 27.0960793,22.5750739 28.5574575,23.14653 C30.0143965,23.7162502 31.6086644,24 33.3353875,24 C35.0912697,23.9786763 36.6996773,23.6738431 38.1656563,23.0832664 C39.6340119,22.4917323 40.9061793,21.6650785 41.9761182,20.6052148 C43.0467759,19.5446392 43.8810779,18.2796713 44.4771278,16.8164891 C45.0732303,15.3531775 45.3698732,13.7361487 45.3698732,11.9704548 C45.3698732,10.1661706 45.0738395,8.52040173 44.4786382,7.03781582 C43.882712,5.5534243 43.0480231,4.27705325 41.9761182,3.21524206 C40.9014224,2.15066634 39.6225046,1.34135265 38.1465114,0.789986128 C36.6795842,0.242006288 35.0710651,-0.0200615127 33.3255369,0.00119606186 C31.6086644,0.00113608256 30.0143965,0.284885913 28.5574575,0.854606084 C27.0946758,1.426611 25.8287283,2.24535022 24.7662858,3.30841873 C23.7049653,4.37036455 22.8760999,5.65141317 22.2807771,7.14504738 C21.6861409,8.63695868 21.3902762,10.2871283 21.3902762,12.0909076 C21.3902762,13.8566015 21.6869191,15.4736303 22.2830216,16.9369419 Z M27.3994997,9.14787749 C27.7116901,8.3184008 28.1498711,7.59810778 28.7155554,6.98164309 C29.2760272,6.3708589 29.944822,5.89367021 30.728139,5.54671205 C31.5055861,5.20235389 32.3822756,5.02868491 33.365179,5.02868491 C34.3489344,5.02868491 35.2316399,5.20267136 36.0201552,5.54805131 C36.8124387,5.89508184 37.4850692,6.37189092 38.044594,6.98164309 C38.6102783,7.59810778 39.0484593,8.3184008 39.3606497,9.14787749 C39.6739414,9.9802804 39.8311967,10.8795038 39.8311967,11.850002 C39.8311967,12.9051479 39.6723866,13.8682991 39.3568609,14.7430872 C39.0437091,15.6112936 38.6052068,16.3545005 38.0407377,16.978556 C37.4801257,17.5983472 36.8064125,18.0847678 36.0132411,18.4410954 C35.2265596,18.7945074 34.3463466,18.9724512 33.365179,18.9724512 C32.3848782,18.9724512 31.5107017,18.7948397 30.7350915,18.4424863 C29.9508632,18.0862178 29.2809719,17.5993955 28.7194117,16.978556 C28.1549426,16.3545005 27.7164403,15.6112936 27.4032885,14.7430872 C27.0877628,13.8682991 26.9289527,12.9051479 26.9289527,11.850002 C26.9289527,10.8795038 27.086208,9.9802804 27.3994997,9.14787749 Z M55.7696569,22.9644962 C55.7696441,23.2370301 55.9863878,23.4579624 56.2642755,23.4579624 L60.6349196,23.4579624 C60.9081027,23.4579624 61.1295435,23.2374682 61.1295212,22.964339 L61.1287732,13.772415 L69.4580899,0.953605251 C69.6053773,0.72693014 69.5120978,0.543173657 69.2443243,0.543173657 L63.6583675,0.543173657 C63.4784455,0.543173657 63.2573873,0.665074705 63.1621948,0.819378775 L58.544937,8.30380893 L53.9762234,0.819378775 C53.8831061,0.6668349 53.6690759,0.543173657 53.4876866,0.543173657 L47.6729861,0.543173657 C47.3976344,0.543173657 47.2959289,0.730229996 47.4410948,0.953700992 L55.7700873,13.775501 L55.7696569,22.9644962 Z M74.1273105,0.543173657 C73.8593128,0.543173657 73.6420578,0.76996937 73.6420578,1.04309226 L73.6420578,22.9580438 C73.6420578,23.2341412 73.8667356,23.4579624 74.142356,23.4579624 L82.0419841,23.4579624 C83.0903559,23.4579624 84.1237935,23.3519119 85.141437,23.1398225 C86.197061,22.9198176 87.1416212,22.5479049 87.9704763,22.0228797 C88.8229474,21.4828954 89.5128311,20.7682721 90.0335588,19.8872059 C90.5682122,18.9825777 90.8291994,17.8757405 90.8291994,16.5777742 C90.8291994,15.7995147 90.6976884,15.065503 90.4334999,14.3804834 C90.1717797,13.7018639 89.8103211,13.0987263 89.3500403,12.5753184 C88.8856379,12.0472236 88.3238321,11.6140009 87.669565,11.2775334 C87.580724,11.2312109 87.580724,11.2312109 87.580724,11.2312109 C88.0077441,10.9364086 88.3911319,10.5927187 88.7294657,10.2004388 C89.5350513,9.26640555 89.9354553,8.08793266 89.9354553,6.7006451 C89.9354553,5.60947873 89.716667,4.65503718 89.2703404,3.8477223 C88.835989,3.062068 88.2644473,2.41432808 87.5599033,1.91231882 C86.869886,1.42066041 86.0862424,1.06734675 85.2144478,0.852693179 C84.3766956,0.646421527 83.5272811,0.543173657 82.667605,0.543173657 L74.1273105,0.543173657 Z M79.0167083,5.39004329 C79.7766053,5.39004329 81.2971973,5.39004329 81.2971973,5.39004329 C82.5768023,5.39004329 83.4632951,5.58297623 83.9477208,5.9219696 C84.3685978,6.2164927 84.5755277,6.65734721 84.5755277,7.33302226 C84.5755277,7.89339042 84.3741313,8.31022689 83.9416294,8.65025005 C83.4780647,9.01469407 82.7107539,9.21577484 81.6249035,9.21577484 C81.6249035,9.21577484 79.8863195,9.21577484 79.002024,9.21577484 L79.0167083,5.39004329 Z M79.002024,14.0626445 C79.9492277,14.0626445 81.8036523,14.0626445 81.8036523,14.0626445 C83.198144,14.0626445 84.1896939,14.2569147 84.7649352,14.6073799 C85.2286446,14.8898943 85.4692718,15.4096646 85.4692718,16.2766422 C85.4692718,16.824047 85.3633729,17.2201046 85.173349,17.4826084 C84.9529898,17.7870184 84.6788644,18.0167078 84.341837,18.1796355 C83.9693919,18.3596851 83.556881,18.4752796 83.1003018,18.5256261 C82.5825927,18.5827134 82.1006177,18.6110928 81.654695,18.6110928 C81.654695,18.6110928 79.8879768,18.6110928 79.002024,18.6110928 L79.002024,14.0626445 Z M95.9846624,16.9369419 C96.5806234,18.3999059 97.4098681,19.6599097 98.4708349,20.7106691 C99.5327992,21.7624164 100.79772,22.5750739 102.259098,23.14653 C103.716037,23.7162502 105.310305,24 107.037028,24 C108.792911,23.9786763 110.401318,23.6738431 111.867297,23.0832664 C113.335653,22.4917323 114.60782,21.6650785 115.677759,20.6052148 C116.748417,19.5446392 117.582719,18.2796713 118.178769,16.8164891 C118.774871,15.3531775 119.071514,13.7361487 119.071514,11.9704548 C119.071514,10.1661706 118.77548,8.52040173 118.180279,7.03781582 C117.584353,5.5534243 116.749664,4.27705325 115.677759,3.21524206 C114.603063,2.15066634 113.324145,1.34135265 111.848152,0.789986128 C110.381225,0.242006288 108.772706,-0.0200615127 107.027178,0.00119606186 C105.310305,0.00113608256 103.716037,0.284885913 102.259098,0.854606084 C100.796317,1.426611 99.5303691,2.24535022 98.4679266,3.30841873 C97.4066061,4.37036455 96.5777407,5.65141317 95.9824179,7.14504738 C95.3877817,8.63695868 95.091917,10.2871283 95.091917,12.0909076 C95.091917,13.8566015 95.3885599,15.4736303 95.9846624,16.9369419 Z M101.101141,9.14787749 C101.413331,8.3184008 101.851512,7.59810778 102.417196,6.98164309 C102.977668,6.3708589 103.646463,5.89367021 104.42978,5.54671205 C105.207227,5.20235389 106.083916,5.02868491 107.06682,5.02868491 C108.050575,5.02868491 108.933281,5.20267136 109.721796,5.54805131 C110.51408,5.89508184 111.18671,6.37189092 111.746235,6.98164309 C112.311919,7.59810778 112.7501,8.3184008 113.06229,9.14787749 C113.375582,9.9802804 113.532838,10.8795038 113.532838,11.850002 C113.532838,12.9051479 113.374027,13.8682991 113.058502,14.7430872 C112.74535,15.6112936 112.306848,16.3545005 111.742378,16.978556 C111.181766,17.5983472 110.508053,18.0847678 109.714882,18.4410954 C108.9282,18.7945074 108.047987,18.9724512 107.06682,18.9724512 C106.086519,18.9724512 105.212342,18.7948397 104.436732,18.4424863 C103.652504,18.0862178 102.982613,17.5993955 102.421053,16.978556 C101.856583,16.3545005 101.418081,15.6112936 101.104929,14.7430872 C100.789404,13.8682991 100.630593,12.9051479 100.630593,11.850002 C100.630593,10.8795038 100.787849,9.9802804 101.101141,9.14787749 Z M121.049985,23.0472807 C120.897081,23.2740939 120.988803,23.4579624 121.260348,23.4579624 L126.924983,23.4579624 C127.107439,23.4579624 127.32734,23.3409871 127.42479,23.1826447 L132.25961,15.3267764 C132.308428,15.2474546 132.386271,15.2450001 132.436869,15.3267764 L137.297578,23.1826447 C137.391659,23.3346985 137.608616,23.4579624 137.792815,23.4579624 L143.719416,23.4579624 C143.98696,23.4579624 144.074957,23.2703713 143.930833,23.0606077 L136.090427,11.6493938 C136.039533,11.5753202 136.038361,11.4562389 136.092479,11.3765439 L143.174947,0.946689001 C143.326278,0.72383363 143.232169,0.543173657 142.959224,0.543173657 L137.265382,0.543173657 C137.081985,0.543173657 136.855712,0.66779411 136.763508,0.81586649 L132.547741,7.58604809 C132.50062,7.66172027 132.42328,7.66099411 132.376019,7.58604809 L128.106779,0.81586649 C128.011809,0.665262397 127.794754,0.543173657 127.61137,0.543173657 L121.710973,0.543173657 C121.444612,0.543173657 121.347864,0.715707431 121.507723,0.947129903 L128.720174,11.388381 C128.773157,11.465082 128.780248,11.5804526 128.725781,11.6612479 L121.049985,23.0472807 Z" id="toybox-white" fill="#FFFFFF"></path>
    </g>
</svg>