<?xml version="1.0" encoding="UTF-8"?>
<svg width="96px" height="17px" viewBox="0 0 96 17" version="1.1" xmlns="http://www.w3.org/2000/svg" xmlns:xlink="http://www.w3.org/1999/xlink">
    <!-- Generator: Sketch 42 (36781) - http://www.bohemiancoding.com/sketch -->
    <title>Square Logo</title>
    <desc>Created with Sketch.</desc>
    <defs></defs>
    <g id="Site" stroke="none" stroke-width="1" fill="none" fill-rule="evenodd">
        <g id="Toybox-New-Home-Concept" transform="translate(-37.000000, -31.000000)" stroke-width="1.06818182" stroke="#FFFFFF" fill="#FFFFFF">
            <g id="Header">
                <g id="Square-Logo" transform="translate(38.000000, 32.000000)">
                    <path d="M4.29793509,2.66191612 L0,2.66191612 L0,0.363645599 L11.0914454,0.363645599 L11.0914454,2.66191612 L6.79351031,2.66191612 L6.79351031,14.6371152 L4.29793509,14.6371152 L4.29793509,2.66191612 Z M14.2208175,7.56086119 C14.2208175,6.41844031 14.4056731,5.3801969 14.7753898,4.44609982 C15.1451065,3.51200275 15.6567603,2.71568013 16.3103666,2.05710809 C16.9639729,1.39853605 17.7430071,0.891174386 18.6474926,0.535007875 C19.5519781,0.178841363 20.5455768,0.00076077891 21.6283186,0.00076077891 C22.7242645,-0.0126794668 23.7277662,0.151961074 24.6388538,0.494687339 C25.5499413,0.837413605 26.3355775,1.33805525 26.9957859,1.99662729 C27.6559943,2.65519933 28.1709491,3.44816193 28.5406658,4.37553889 C28.9103825,5.30291584 29.0952381,6.33779924 29.0952381,7.48022012 C29.0952381,8.59576052 28.9103825,9.61048385 28.5406658,10.5244206 C28.1709491,11.4383573 27.6559943,12.2245998 26.9957859,12.8831719 C26.3355775,13.5417439 25.5499413,14.0558256 24.6388538,14.4254324 C23.7277662,14.7950391 22.7242645,14.9865598 21.6283186,15 C20.5455768,15 19.5519781,14.8219194 18.6474926,14.4657529 C17.7430071,14.1095864 16.9639729,13.6055847 16.3103666,12.9537328 C15.6567603,12.3018809 15.1451065,11.5189983 14.7753898,10.6050616 C14.4056731,9.69112492 14.2208175,8.67640159 14.2208175,7.56086119 L14.2208175,7.56086119 Z M16.8352297,7.39957905 C16.8352297,8.16567306 16.9507644,8.87127537 17.1818373,9.51640717 C17.4129103,10.161539 17.7397085,10.7193008 18.1622419,11.1897094 C18.5847753,11.660118 19.0898271,12.0297192 19.6774126,12.2985241 C20.264998,12.567329 20.9218955,12.7017295 21.6481247,12.7017295 C22.374354,12.7017295 23.0345524,12.567329 23.62874,12.2985241 C24.2229275,12.0297192 24.7312804,11.660118 25.1538137,11.1897094 C25.5763471,10.7193008 25.9031453,10.161539 26.1342183,9.51640717 C26.3652912,8.87127537 26.4808259,8.16567306 26.4808259,7.39957905 C26.4808259,6.68724603 26.3652912,6.02196384 26.1342183,5.40371254 C25.9031453,4.78546124 25.5763471,4.24449946 25.1538137,3.78081099 C24.7312804,3.31712251 24.2229275,2.95424132 23.62874,2.69215653 C23.0345524,2.43007173 22.374354,2.2990313 21.6481247,2.2990313 C20.9218955,2.2990313 20.264998,2.43007173 19.6774126,2.69215653 C19.0898271,2.95424132 18.5847753,3.31712251 18.1622419,3.78081099 C17.7397085,4.24449946 17.4129103,4.78546124 17.1818373,5.40371254 C16.9507644,6.02196384 16.8352297,6.68724603 16.8352297,7.39957905 L16.8352297,7.39957905 Z M37.0771176,8.52855405 L31.808681,0.363645599 L34.9380531,0.363645599 L38.3843236,6.04884111 L41.8702065,0.363645599 L44.8411294,0.363645599 L39.5726928,8.52855405 L39.5726928,14.6371152 L37.0771176,14.6371152 L37.0771176,8.52855405 Z M48.3072061,0.363645599 L53.7737042,0.363645599 C54.3018709,0.363645599 54.8234277,0.427485808 55.3383902,0.555168143 C55.8533528,0.682850477 56.3121907,0.891171161 56.7149178,1.18013644 C57.1176449,1.46910173 57.4444432,1.84206295 57.6953224,2.2990313 C57.9462016,2.75599966 58.0716393,3.30704147 58.0716393,3.95217326 C58.0716393,4.758588 57.8471718,5.42387019 57.3982301,5.94803977 C56.9492884,6.47220935 56.3617117,6.84853059 55.6354825,7.07701477 L55.6354825,7.1173353 C56.07122,7.17109628 56.4772421,7.29541669 56.8535609,7.49030026 C57.2298797,7.68518382 57.5500759,7.93382463 57.8141593,8.23623016 C58.0782426,8.53863569 58.2862052,8.88807684 58.4380531,9.28456409 C58.589901,9.68105134 58.6658238,10.1077727 58.6658238,10.5647411 C58.6658238,11.3442753 58.5139782,11.9927575 58.2102823,12.5102069 C57.9065865,13.0276564 57.5071664,13.4442978 57.0120101,13.7601435 C56.5168538,14.0759893 55.9490831,14.30111 55.308681,14.4355125 C54.6682789,14.569915 54.0179834,14.6371152 53.357775,14.6371152 L48.3072061,14.6371152 L48.3072061,0.363645599 Z M50.8027813,6.16980272 L53.0804888,6.16980272 C53.9123514,6.16980272 54.536239,6.00516218 54.9521703,5.67587616 C55.3681015,5.34659014 55.5760641,4.91314871 55.5760641,4.37553889 C55.5760641,3.75728758 55.3614995,3.29696607 54.9323641,2.99456054 C54.5032286,2.69215501 53.8133212,2.54095452 52.8626212,2.54095452 L50.8027813,2.54095452 L50.8027813,6.16980272 Z M50.8027813,12.4598063 L53.100295,12.4598063 C53.417195,12.4598063 53.7571972,12.4396462 54.1203118,12.3993255 C54.4834265,12.3590047 54.8168267,12.2649244 55.1205225,12.1170817 C55.4242184,11.969239 55.6750938,11.7575583 55.8731563,11.4820333 C56.0712189,11.2065082 56.1702486,10.833547 56.1702486,10.3631384 C56.1702486,9.61048465 55.9292762,9.08632293 55.4473241,8.79063753 C54.9653719,8.49495212 54.2160467,8.34711164 53.1993258,8.34711164 L50.8027813,8.34711164 L50.8027813,12.4598063 Z M62.5676359,7.56086119 C62.5676359,6.41844031 62.7524915,5.3801969 63.1222082,4.44609982 C63.4919249,3.51200275 64.0035787,2.71568013 64.657185,2.05710809 C65.3107913,1.39853605 66.0898255,0.891174386 66.994311,0.535007875 C67.8987965,0.178841363 68.8923952,0.00076077891 69.975137,0.00076077891 C71.0710829,-0.0126794668 72.0745846,0.151961074 72.9856722,0.494687339 C73.8967597,0.837413605 74.6823959,1.33805525 75.3426043,1.99662729 C76.0028127,2.65519933 76.5177675,3.44816193 76.8874842,4.37553889 C77.2572009,5.30291584 77.4420565,6.33779924 77.4420565,7.48022012 C77.4420565,8.59576052 77.2572009,9.61048385 76.8874842,10.5244206 C76.5177675,11.4383573 76.0028127,12.2245998 75.3426043,12.8831719 C74.6823959,13.5417439 73.8967597,14.0558256 72.9856722,14.4254324 C72.0745846,14.7950391 71.0710829,14.9865598 69.975137,15 C68.8923952,15 67.8987965,14.8219194 66.994311,14.4657529 C66.0898255,14.1095864 65.3107913,13.6055847 64.657185,12.9537328 C64.0035787,12.3018809 63.4919249,11.5189983 63.1222082,10.6050616 C62.7524915,9.69112492 62.5676359,8.67640159 62.5676359,7.56086119 L62.5676359,7.56086119 Z M65.1820481,7.39957905 C65.1820481,8.16567306 65.2975828,8.87127537 65.5286557,9.51640717 C65.7597287,10.161539 66.0865269,10.7193008 66.5090603,11.1897094 C66.9315936,11.660118 67.4366455,12.0297192 68.0242309,12.2985241 C68.6118164,12.567329 69.2687139,12.7017295 69.9949431,12.7017295 C70.7211723,12.7017295 71.3813708,12.567329 71.9755584,12.2985241 C72.5697459,12.0297192 73.0780987,11.660118 73.5006321,11.1897094 C73.9231655,10.7193008 74.2499637,10.161539 74.4810367,9.51640717 C74.7121096,8.87127537 74.8276443,8.16567306 74.8276443,7.39957905 C74.8276443,6.68724603 74.7121096,6.02196384 74.4810367,5.40371254 C74.2499637,4.78546124 73.9231655,4.24449946 73.5006321,3.78081099 C73.0780987,3.31712251 72.5697459,2.95424132 71.9755584,2.69215653 C71.3813708,2.43007173 70.7211723,2.2990313 69.9949431,2.2990313 C69.2687139,2.2990313 68.6118164,2.43007173 68.0242309,2.69215653 C67.4366455,2.95424132 66.9315936,3.31712251 66.5090603,3.78081099 C66.0865269,4.24449946 65.7597287,4.78546124 65.5286557,5.40371254 C65.2975828,6.02196384 65.1820481,6.68724603 65.1820481,7.39957905 L65.1820481,7.39957905 Z M85.423936,7.17781611 L80.749684,0.363645599 L83.8988622,0.363645599 L87.2064897,5.64563575 L90.4745049,0.363645599 L93.5048462,0.363645599 L88.9098188,7.17781611 L94,14.6371152 L90.8310156,14.6371152 L87.1272651,8.60919512 L83.4433207,14.6371152 L80.4327855,14.6371152 L85.423936,7.17781611 Z" id="TOYBOX-Copy"></path>
                </g>
            </g>
        </g>
    </g>
</svg>